<svg width="123" height="19" viewBox="0 0 123 19" fill="none" xmlns="http://www.w3.org/2000/svg">
<path d="M0.776 18V0.959999H12.224V3.864H4.088V8.256H10.856V10.944H4.088V18H0.776ZM21.1004 8.208C20.1244 8.208 19.2524 8.4 18.4844 8.784C17.7164 9.152 17.1644 9.688 16.8284 10.392V18H13.6124V5.424H16.5644V8.112C17.0124 7.248 17.5804 6.568 18.2684 6.072C18.9564 5.576 19.6844 5.304 20.4524 5.256C20.6284 5.256 20.7644 5.256 20.8604 5.256C20.9564 5.256 21.0364 5.264 21.1004 5.28V8.208ZM28.5616 18.24C27.5536 18.24 26.6416 18.072 25.8256 17.736C25.0096 17.384 24.3136 16.912 23.7376 16.32C23.1616 15.712 22.7136 15.024 22.3936 14.256C22.0896 13.472 21.9376 12.648 21.9376 11.784C21.9376 10.584 22.2016 9.488 22.7296 8.496C23.2736 7.504 24.0416 6.712 25.0336 6.12C26.0416 5.512 27.2256 5.208 28.5856 5.208C29.9616 5.208 31.1376 5.512 32.1136 6.12C33.0896 6.712 33.8336 7.504 34.3456 8.496C34.8736 9.472 35.1376 10.528 35.1376 11.664C35.1376 11.856 35.1296 12.056 35.1136 12.264C35.0976 12.456 35.0816 12.616 35.0656 12.744H25.3456C25.4096 13.384 25.5936 13.944 25.8976 14.424C26.2176 14.904 26.6176 15.272 27.0976 15.528C27.5936 15.768 28.1216 15.888 28.6816 15.888C29.3216 15.888 29.9216 15.736 30.4816 15.432C31.0576 15.112 31.4496 14.696 31.6576 14.184L34.4176 14.952C34.1136 15.592 33.6736 16.16 33.0976 16.656C32.5376 17.152 31.8736 17.544 31.1056 17.832C30.3376 18.104 29.4896 18.24 28.5616 18.24ZM25.2736 10.704H31.8496C31.7856 10.064 31.6016 9.512 31.2976 9.048C31.0096 8.568 30.6256 8.2 30.1456 7.944C29.6656 7.672 29.1296 7.536 28.5376 7.536C27.9616 7.536 27.4336 7.672 26.9536 7.944C26.4896 8.2 26.1056 8.568 25.8016 9.048C25.5136 9.512 25.3376 10.064 25.2736 10.704ZM42.9288 18.24C41.9208 18.24 41.0088 18.072 40.1928 17.736C39.3768 17.384 38.6808 16.912 38.1048 16.32C37.5288 15.712 37.0808 15.024 36.7608 14.256C36.4568 13.472 36.3048 12.648 36.3048 11.784C36.3048 10.584 36.5688 9.488 37.0968 8.496C37.6408 7.504 38.4088 6.712 39.4008 6.12C40.4088 5.512 41.5928 5.208 42.9528 5.208C44.3288 5.208 45.5048 5.512 46.4808 6.12C47.4568 6.712 48.2008 7.504 48.7128 8.496C49.2408 9.472 49.5048 10.528 49.5048 11.664C49.5048 11.856 49.4968 12.056 49.4808 12.264C49.4648 12.456 49.4488 12.616 49.4328 12.744H39.7128C39.7768 13.384 39.9608 13.944 40.2648 14.424C40.5848 14.904 40.9848 15.272 41.4648 15.528C41.9608 15.768 42.4888 15.888 43.0488 15.888C43.6888 15.888 44.2888 15.736 44.8488 15.432C45.4248 15.112 45.8168 14.696 46.0248 14.184L48.7848 14.952C48.4808 15.592 48.0408 16.16 47.4648 16.656C46.9048 17.152 46.2408 17.544 45.4728 17.832C44.7048 18.104 43.8568 18.24 42.9288 18.24ZM39.6408 10.704H46.2168C46.1528 10.064 45.9688 9.512 45.6648 9.048C45.3768 8.568 44.9928 8.2 44.5128 7.944C44.0328 7.672 43.4968 7.536 42.9048 7.536C42.3288 7.536 41.8008 7.672 41.3208 7.944C40.8568 8.2 40.4728 8.568 40.1688 9.048C39.8808 9.512 39.7048 10.064 39.6408 10.704ZM51.44 0.48H54.656V13.968C54.656 14.544 54.752 14.936 54.944 15.144C55.136 15.336 55.4 15.432 55.736 15.432C55.992 15.432 56.256 15.4 56.528 15.336C56.8 15.272 57.04 15.192 57.248 15.096L57.68 17.544C57.248 17.752 56.744 17.912 56.168 18.024C55.592 18.136 55.072 18.192 54.608 18.192C53.6 18.192 52.816 17.928 52.256 17.4C51.712 16.856 51.44 16.088 51.44 15.096V0.48ZM58.2172 14.28C58.2172 13.464 58.4412 12.752 58.8892 12.144C59.3532 11.52 59.9932 11.04 60.8092 10.704C61.6252 10.368 62.5612 10.2 63.6172 10.2C64.1452 10.2 64.6812 10.24 65.2252 10.32C65.7692 10.4 66.2412 10.528 66.6412 10.704V10.032C66.6412 9.232 66.4012 8.616 65.9212 8.184C65.4572 7.752 64.7612 7.536 63.8332 7.536C63.1452 7.536 62.4892 7.656 61.8652 7.896C61.2412 8.136 60.5852 8.488 59.8972 8.952L58.8652 6.84C59.6972 6.296 60.5452 5.888 61.4092 5.616C62.2892 5.344 63.2092 5.208 64.1692 5.208C65.9612 5.208 67.3532 5.656 68.3452 6.552C69.3532 7.448 69.8572 8.728 69.8572 10.392V14.4C69.8572 14.736 69.9132 14.976 70.0252 15.12C70.1532 15.264 70.3532 15.352 70.6252 15.384V18C70.3372 18.048 70.0732 18.088 69.8332 18.12C69.6092 18.152 69.4172 18.168 69.2572 18.168C68.6172 18.168 68.1292 18.024 67.7932 17.736C67.4732 17.448 67.2732 17.096 67.1932 16.68L67.1212 16.032C66.5772 16.736 65.8972 17.28 65.0812 17.664C64.2652 18.048 63.4332 18.24 62.5852 18.24C61.7532 18.24 61.0012 18.072 60.3292 17.736C59.6732 17.384 59.1532 16.912 58.7692 16.32C58.4012 15.712 58.2172 15.032 58.2172 14.28ZM66.0412 14.928C66.2172 14.736 66.3612 14.544 66.4732 14.352C66.5852 14.16 66.6412 13.984 66.6412 13.824V12.552C66.2572 12.392 65.8412 12.272 65.3932 12.192C64.9452 12.096 64.5212 12.048 64.1212 12.048C63.2892 12.048 62.6012 12.232 62.0572 12.6C61.5292 12.952 61.2652 13.424 61.2652 14.016C61.2652 14.336 61.3532 14.64 61.5292 14.928C61.7052 15.216 61.9612 15.448 62.2972 15.624C62.6332 15.8 63.0332 15.888 63.4972 15.888C63.9772 15.888 64.4492 15.8 64.9132 15.624C65.3772 15.432 65.7532 15.2 66.0412 14.928ZM84.5504 18H81.3344V10.944C81.3344 9.936 81.1584 9.2 80.8064 8.736C80.4544 8.272 79.9664 8.04 79.3424 8.04C78.9104 8.04 78.4704 8.152 78.0224 8.376C77.5904 8.6 77.1984 8.912 76.8464 9.312C76.4944 9.696 76.2384 10.144 76.0784 10.656V18H72.8624V5.424H75.7664V7.752C76.0864 7.208 76.4944 6.752 76.9904 6.384C77.4864 6 78.0544 5.712 78.6944 5.52C79.3504 5.312 80.0384 5.208 80.7584 5.208C81.5424 5.208 82.1824 5.352 82.6784 5.64C83.1904 5.912 83.5744 6.288 83.8304 6.768C84.1024 7.232 84.2864 7.76 84.3824 8.352C84.4944 8.944 84.5504 9.544 84.5504 10.152V18ZM93.2028 18.24C92.1788 18.24 91.2588 18.072 90.4428 17.736C89.6268 17.384 88.9308 16.904 88.3548 16.296C87.7788 15.672 87.3308 14.968 87.0108 14.184C86.7068 13.4 86.5548 12.576 86.5548 11.712C86.5548 10.528 86.8188 9.448 87.3468 8.472C87.8908 7.48 88.6588 6.688 89.6508 6.096C90.6428 5.504 91.8188 5.208 93.1788 5.208C94.5388 5.208 95.7068 5.504 96.6828 6.096C97.6588 6.688 98.3868 7.464 98.8668 8.424L95.7228 9.384C95.4508 8.92 95.0908 8.568 94.6428 8.328C94.1948 8.072 93.6988 7.944 93.1548 7.944C92.5468 7.944 91.9868 8.104 91.4748 8.424C90.9788 8.728 90.5868 9.168 90.2988 9.744C90.0108 10.304 89.8668 10.96 89.8668 11.712C89.8668 12.448 90.0108 13.104 90.2988 13.68C90.6028 14.24 91.0028 14.688 91.4988 15.024C91.9948 15.344 92.5468 15.504 93.1548 15.504C93.5388 15.504 93.8988 15.44 94.2348 15.312C94.5868 15.184 94.8988 15.008 95.1708 14.784C95.4428 14.56 95.6428 14.304 95.7708 14.016L98.9148 14.976C98.6268 15.6 98.2028 16.16 97.6428 16.656C97.0988 17.152 96.4508 17.544 95.6988 17.832C94.9628 18.104 94.1308 18.24 93.2028 18.24ZM106.609 18.24C105.601 18.24 104.689 18.072 103.873 17.736C103.057 17.384 102.361 16.912 101.785 16.32C101.209 15.712 100.761 15.024 100.441 14.256C100.137 13.472 99.9845 12.648 99.9845 11.784C99.9845 10.584 100.249 9.488 100.777 8.496C101.321 7.504 102.089 6.712 103.081 6.12C104.089 5.512 105.273 5.208 106.633 5.208C108.009 5.208 109.185 5.512 110.161 6.12C111.137 6.712 111.881 7.504 112.393 8.496C112.921 9.472 113.185 10.528 113.185 11.664C113.185 11.856 113.177 12.056 113.161 12.264C113.145 12.456 113.129 12.616 113.113 12.744H103.393C103.457 13.384 103.641 13.944 103.945 14.424C104.265 14.904 104.665 15.272 105.145 15.528C105.641 15.768 106.169 15.888 106.729 15.888C107.369 15.888 107.969 15.736 108.529 15.432C109.105 15.112 109.497 14.696 109.705 14.184L112.465 14.952C112.161 15.592 111.721 16.16 111.145 16.656C110.585 17.152 109.921 17.544 109.153 17.832C108.385 18.104 107.537 18.24 106.609 18.24ZM103.321 10.704H109.897C109.833 10.064 109.649 9.512 109.345 9.048C109.057 8.568 108.673 8.2 108.193 7.944C107.713 7.672 107.177 7.536 106.585 7.536C106.009 7.536 105.481 7.672 105.001 7.944C104.537 8.2 104.153 8.568 103.849 9.048C103.561 9.512 103.385 10.064 103.321 10.704ZM122.632 8.208C121.656 8.208 120.784 8.4 120.016 8.784C119.248 9.152 118.696 9.688 118.36 10.392V18H115.144V5.424H118.096V8.112C118.544 7.248 119.112 6.568 119.8 6.072C120.488 5.576 121.216 5.304 121.984 5.256C122.16 5.256 122.296 5.256 122.392 5.256C122.488 5.256 122.568 5.264 122.632 5.28V8.208Z" fill="#C4C4C4"/>
</svg>
